<?xml version="1.0" ?><svg id="Layer_1" style="enable-background:new 0 0 512 512;" version="1.1" viewBox="0 0 512 512" xml:space="preserve" xmlns="http://www.w3.org/2000/svg" xmlns:xlink="http://www.w3.org/1999/xlink"><style type="text/css">
	.st0{fill:#BD1F34;}
	.st1{fill:#010101;}
</style><g id="XMLID_1_"><rect class="st0" height="298.7" id="XMLID_6_" width="512" y="106.7"/><path class="st1" d="M338.3,296.4c-0.6-0.5-1.7-0.8-2.7-0.8c-0.9,0-2.3-0.3-3.1-0.7c-1.7-0.8-3.5-0.5-5.1,0.8c-1,0.8-1.7,1-5.6,1.3   c-5.5,0.5-7.3,0.5-7.3,0.1c0-0.2,1.4-1.2,3.1-2.3c2.4-1.6,3.4-2,4.1-1.8c1.7,0.3,3.7-0.5,5.3-2.1c1.5-1.5,1.8-1.6,5.2-1.5   c0.8,0,0.3,0.1,1.4-0.1c-0.5-1.4-2.5-4-5.9-3.2c-1.4,0.4-2.4,0.4-3.1,0.2c-2.2-0.8-5.1,0.8-6,3.1c-0.5,1.2-2.6,3-6.5,5.4l-2.8,1.8   l-5.5-2.1c-6.1-2.4-11.4-4.7-11.4-5.1c0-0.2,0.8-1.1,1.7-2.2c0.9-1,1.7-2,1.7-2.1c0-0.1-1-0.8-2.4-1.4   c-8.5-4.3-14.6-10.4-17.2-17.3c-1.8-4.8-0.9-5.9,1.3-1.6c1.8,3.5,3.1,5,5.6,6.6c2.6,1.7,4.1,2,5.1,1.1c1.2-1.1,0.9-2.4-0.8-4.3   c-3.8-4.3-4.8-10.8-1.7-10.8c1.2,0,1.3,0.2,3.7,5.7c3.4,7.7,6.8,12.9,9.5,14.2c2.3,1.2,6,0.2,6.6-1.7c0.5-1.6-0.1-2.6-2.7-4.2   c-4.1-2.7-6.8-7-7.8-12.6c-0.3-1.8-0.3-2.3,0.2-3.1c0.9-1.4,1.6-0.9,4.3,3.1c5,7.5,14,17.3,17.6,19.4c6.5,3.6,13,3.5,16.9-0.4   c1.1-1.1,1.4-1.7,1.4-2.7c0-1.9-1.4-2.7-4.4-2.5c-6.8,0.3-7.5,0.2-10.1-1c-5.1-2.4-10-8.1-13.8-16.2c-3.7-7.5-2.8-7.9,3.4-1.6   c8.4,8.5,15.1,11.7,21.3,9.8c3-0.9,5.8-3.6,5.8-5.6c0-2.2-1.1-2.8-4.3-2.6c-1.5,0.1-4.2,0.2-6.1,0.2c-3.1,0-3.6-0.1-6-1.2   c-1.4-0.7-3.7-2.3-5.2-3.7c-4-3.7-10.7-12.9-10.7-14.6c0-1.8,1.6-1.1,5.7,2.5c3.3,2.9,9.3,7,12,8.2c1.6,0.7,2.6,0.8,5.5,0.9   c3.1,0,3.9-0.1,5.4-1c2.5-1.3,3.4-2.5,3.6-5.1c0.3-3.7-1.5-4.6-7-3.3c-7.6,1.9-11.6,0.5-18.7-6.6c-3.4-3.5-4.6-5.4-4.2-6.5   c0.4-1.1,1.9-0.6,8.4,2.7c7.1,3.6,9.2,4.3,12.5,4.3c3,0,4.9-0.6,6.7-2.2c2.8-2.4,3.5-5,1.7-6.7c-1.4-1.4-4.1-1.3-7.1,0.2   c-1.5,0.7-3.1,1.3-4.5,1.4c-4.8,0.5-11.8-2.2-15.3-5.8c-2.4-2.4-3.5-4.6-2.8-5.4c0.7-0.8,1.7-0.6,4.4,0.5c5.2,2.2,7.6,2.8,11.5,2.8   c4.4,0,7-0.7,10.8-2.8c2.9-1.6,4.8-3.7,4.8-5.1c0-0.6-0.3-1.6-0.8-2.3c-1.1-1.8-3.1-1.7-6.8,0.3c-7.4,4-12.5,4.6-17.6,2   c-2.2-1.1-5.9-4.6-6.9-6.5c-0.6-1.2-0.6-1.3,0-1.9c0.7-0.7,1.2-0.6,6.9,1.5c2.9,1,4.1,1.3,7.5,1.4c4.5,0.2,7.2-0.3,10.1-1.6   c3.9-1.8,7.7-6.4,7.7-9.3c0-1.4-0.9-3.2-1.7-3.6c-1.7-0.6-2.6-0.2-5.2,2.5c-4,4.1-8,5.7-14.4,5.7c-6.7,0-9.5-1.1-9.5-3.6   c0-1.7,1.3-2.8,4.1-3.2c8.4-1.4,18.1-5.8,23.3-10.6c3.1-2.9,4.3-4.9,4.2-7.3c0-2.8-1.2-4.6-3.4-5.3c-1.9-0.5-3.3,0.3-5.2,3.4   c-3.3,5.1-6.6,8-12.9,11.1c-3.7,1.8-9.6,3.8-10.7,3.6c-0.3-0.1-0.9-0.8-1.2-1.6c-0.9-2.6-1.1-2.6-4.9-1c-1.9,0.8-5.8,2.3-8.7,3.3   c-5.8,2.1-7.7,3.3-9.1,6c-0.7,1.3-0.8,2.2-0.8,6.3c0,4.3-0.1,4.8-0.9,6c-1.2,1.6-2.1,2.1-4.6,2.1c-3.5,0-5.5-2.1-5.7-6.2   c-0.2-3.3,0.4-6.1,2-9.5c1.6-3.4,3.5-5.4,7-7.7c3.4-2.2,6.6-3.2,11.3-3.7c4.2-0.4,8.5-2,9.5-4.1c-4.3,1.3-8.7-0.6-8.3-0.8   c0.4-0.2,8.1-0.2,9.1-0.3c3.2-0.3,4.5-1.2,6.3-2.5c2.1-1.5,3.4-2.8,2.9-3.8c-0.5-1-2.1-0.8-3.1,0.3c-0.5,0.6-1.5,1.7-2.2,2.5   c-1.2,1.4-1.5,1.5-5.1,2.1c-2.8,0.4-3.3,0.4-4.9,0c-0.5-0.4-1-0.8-1-1c0-0.5,1.5-1.4,2.9-1.7c1-0.2,3.3,0.6,5.2,1.1   c-0.4-1.1-0.4-1.2-1.1-2.4c-0.9-1.8-2.5-2.4-6.6-2.6c-2.8-0.1-3.8-0.3-4.4-0.8c-0.5-0.4-1.1-0.9-1.5-1.1c-0.5-0.3-1.2-0.4-2.1-0.4   c-2.6-0.1-6.6,0.9-10.5,2.6c-2.1,0.9-3.1,1.2-5.3,1.2c-1.5,0-3.4-0.2-4.3-0.4c-3-0.8-3.6-0.8-3.6-0.2c0,0.7,2.6,3.1,4.5,4.1   c1.1,0.5,1.5,0.9,1.3,1.3c-0.3,0.8-3.2,2.8-5,3.4c-1.8,0.6-1.8,1.4,0.2,2.3c0.9,0.4,1.6,0.9,1.6,1.2c0,1.1-3.8,3.6-5.5,3.6   c-2.1,0-1.3,1.7,1,2.2c1.3,0.3,1.3,0.4,0.2,1.7c-1.3,1.4-2.4,2-3.6,1.7c-1.4-0.3-1.7,0.2-0.9,1.7c0.7,1.1,0.7,1.2,0,1.7   c-0.3,0.2-0.7,0.4-1.1,0.5v0c-0.1,0-0.2,0-0.3,0.1c-0.1,0-0.2,0-0.3,0c-0.1,0-0.2,0-0.3,0c-0.1,0-0.2,0-0.3-0.1v0   c-0.4-0.1-0.8-0.2-1.1-0.5c-0.7-0.5-0.7-0.6,0-1.7c0.8-1.5,0.5-2-0.9-1.7c-1.3,0.3-2.4-0.2-3.6-1.7c-1.1-1.3-1.1-1.4,0.2-1.7   c2.3-0.5,3.1-2.2,1-2.2c-1.7,0-5.5-2.5-5.5-3.6c0-0.2,0.7-0.8,1.6-1.2c2-1,2-1.7,0.2-2.3c-1.8-0.6-4.7-2.6-5-3.4   c-0.2-0.4,0.2-0.8,1.3-1.3c1.9-1,4.5-3.3,4.5-4.1c0-0.6-0.6-0.6-3.6,0.2c-0.8,0.2-2.7,0.4-4.3,0.4c-2.2,0-3.2-0.2-5.3-1.2   c-3.9-1.7-7.9-2.7-10.5-2.6c-0.9,0-1.6,0.2-2.1,0.4c-0.4,0.2-1.1,0.7-1.5,1.1c-0.6,0.5-1.5,0.7-4.4,0.8c-4.1,0.1-5.7,0.8-6.6,2.6   c-0.7,1.3-0.7,1.4-1.1,2.4c1.9-0.5,4.1-1.3,5.2-1.1c1.4,0.3,2.9,1.2,2.9,1.7c0,0.2-0.5,0.6-1,1c-1.6,0.4-2.1,0.4-4.9,0   c-3.6-0.6-3.9-0.7-5.1-2.1c-0.7-0.8-1.7-1.9-2.2-2.5c-1-1.2-2.6-1.4-3.1-0.3c-0.5,1,0.8,2.3,2.9,3.8c1.8,1.3,3,2.2,6.3,2.5   c1,0.1,8.7,0.1,9.1,0.3c0.4,0.2-4,2.1-8.3,0.8c1,2.1,5.3,3.7,9.5,4.1c4.7,0.5,7.9,1.5,11.3,3.7c3.5,2.3,5.4,4.4,7,7.7   c1.6,3.3,2.2,6.2,2,9.5c-0.2,4.1-2.2,6.2-5.7,6.2c-2.4,0-3.4-0.5-4.6-2.1c-0.8-1.1-0.9-1.7-0.9-6c0-4.1-0.1-5-0.8-6.3   c-1.4-2.7-3.3-4-9.1-6c-2.9-1-6.8-2.5-8.7-3.3c-3.8-1.6-4-1.6-4.9,1c-0.3,0.9-0.8,1.6-1.2,1.6c-1.1,0.2-7-1.8-10.7-3.6   c-6.3-3.2-9.7-6-12.9-11.1c-1.9-3-3.3-3.9-5.2-3.4c-2.2,0.6-3.4,2.5-3.4,5.3c0,2.4,1.1,4.4,4.2,7.3c5.2,4.8,14.9,9.2,23.3,10.6   c2.8,0.4,4.1,1.5,4.1,3.2c0,2.6-2.8,3.6-9.5,3.6c-6.3,0-10.3-1.6-14.4-5.7c-2.6-2.7-3.5-3.1-5.2-2.5c-0.8,0.3-1.7,2.2-1.7,3.6   c0,2.9,3.8,7.5,7.7,9.3c2.9,1.4,5.6,1.8,10.1,1.6c3.3-0.1,4.6-0.4,7.4-1.4c5.7-2.1,6.2-2.2,6.9-1.5c0.5,0.5,0.5,0.7,0,1.9   c-1,1.9-4.7,5.4-6.9,6.5c-5.2,2.6-10.2,2-17.6-2c-3.7-2-5.7-2.1-6.8-0.3c-0.4,0.7-0.8,1.7-0.8,2.3c0,1.4,1.9,3.5,4.8,5.1   c3.8,2.1,6.4,2.8,10.8,2.8c3.9,0,6.4-0.6,11.5-2.8c2.6-1.1,3.7-1.2,4.4-0.5c0.6,0.8-0.5,3-2.8,5.4c-3.5,3.5-10.6,6.2-15.3,5.8   c-1.4-0.1-3-0.7-4.5-1.4c-3-1.5-5.7-1.6-7.1-0.2c-1.7,1.7-1.1,4.4,1.7,6.7c1.8,1.6,3.7,2.2,6.7,2.2c3.3,0,5.4-0.7,12.5-4.3   c6.5-3.3,8-3.8,8.4-2.7c0.5,1.1-0.8,3-4.2,6.5c-7,7.1-11,8.5-18.7,6.6c-5.4-1.4-7.3-0.4-7,3.3c0.2,2.6,1.1,3.9,3.6,5.1   c1.6,0.8,2.4,1,5.5,1c2.9,0,4-0.2,5.5-0.9c2.7-1.3,8.6-5.3,12-8.2c4.1-3.6,5.7-4.3,5.7-2.5c0,1.8-6.7,11-10.7,14.6   c-1.5,1.4-3.8,3-5.2,3.7c-2.3,1.1-2.8,1.2-6,1.2c-1.9,0-4.6-0.1-6.1-0.2c-3.3-0.2-4.3,0.4-4.3,2.6c0,2,2.8,4.7,5.8,5.6   c6.2,1.8,13-1.3,21.3-9.8c6.2-6.3,7.1-5.9,3.4,1.6c-3.9,8.1-8.8,13.8-13.8,16.2c-2.6,1.2-3.3,1.3-10.1,1c-3-0.2-4.4,0.6-4.4,2.5   c0,0.9,0.3,1.6,1.4,2.7c3.9,3.9,10.3,4,16.8,0.4c3.7-2,12.7-11.9,17.7-19.4c2.7-4,3.3-4.5,4.2-3.1c0.6,0.8,0.6,1.3,0.3,3.1   c-1.1,5.6-3.7,9.9-7.8,12.6c-2.6,1.7-3.2,2.7-2.7,4.2c0.6,1.9,4.3,2.9,6.6,1.7c2.7-1.4,6.1-6.5,9.5-14.2c2.4-5.5,2.5-5.7,3.7-5.7   c3.1,0,2,6.5-1.7,10.8c-1.7,1.9-2,3.2-0.8,4.3c1,0.9,2.5,0.6,5.1-1.1c2.5-1.6,3.8-3.1,5.6-6.6c2.2-4.3,3.2-3.2,1.3,1.6   c-2.5,6.8-8.6,12.9-17.2,17.3c-1.3,0.6-2.4,1.3-2.4,1.4c0,0.1,0.8,1.1,1.7,2.1c0.9,1.1,1.7,2,1.7,2.2c0,0.4-5.2,2.7-11.4,5.1   l-5.5,2.1l-2.8-1.8c-3.9-2.4-6.1-4.2-6.5-5.4c-0.9-2.4-3.8-3.9-6-3.1c-0.8,0.3-1.7,0.2-3.1-0.2c-3.4-0.9-5.4,1.8-5.9,3.2   c1.2,0.2,0.6,0.1,1.4,0.1c3.4-0.2,3.8,0,5.2,1.5c1.6,1.6,3.6,2.4,5.3,2.1c0.8-0.2,1.7,0.3,4.1,1.8c1.7,1.1,3.1,2.1,3.1,2.3   c0,0.4-1.8,0.4-7.3-0.1c-3.9-0.3-4.6-0.4-5.6-1.3c-1.6-1.3-3.4-1.6-5.1-0.8c-0.8,0.4-2.1,0.7-3.1,0.7c-1,0-2.1,0.4-2.7,0.8   c-1.1,0.8-1.9,1.3-2.3,2.9c2.1,0,1.4,0,2.9-0.2c2.5-0.4,2.8-0.4,3.6,0.4c0.5,0.4,1.3,1,1.7,1.2c1.1,0.6,3.8,0.5,5-0.2   c0.8-0.4,2.6-0.5,6.7-0.5c3.1,0,5.8,0,6,0c0.2,0-1,0.8-2.7,1.9c-2.9,1.8-3.2,1.9-5.7,1.8c-3.3,0-5.2,1-5.8,3.1   c-0.2,0.8-0.5,2.1-0.8,3c-0.5,2-0.7,2.3,0.7,5.8c1.6-3.8,1.1-2.7,1.6-3.4c0.8-1.2,1.1-1.4,3-1.5c2.6-0.2,3.8-1,4.8-3.1   c0.7-1.4,1.4-2.1,4.9-4.2c4.8-3,4.5-3,9.9-0.5c2.7,1.3,3.6,1.9,4.1,2.8c0.8,1.6,2.5,2.2,4.4,1.6c1.8-0.5,2.6-0.2,3.8,1.5   c0.5,0.7,0.5,0.6,1.3,1.3c0.2-1.1,0.2-1.2,0.2-2.3c0-1.6-0.2-1.9-2.2-3.9c-2.4-2.4-3.8-3-5.5-2.4c-0.8,0.3-1.5,0.2-3.5-0.8   c-2.3-1-3.2-1.9-2-1.9c0.2,0,3.9-1.4,8.1-3l7.7-3l1.1,0.9c2.1,1.6,5.4,3.2,6.9,3.2c1.3,0,1.5-0.1,1.9-1.5   c0.6-2.2,5.1-10.7,7.5-14.4c4-6.2,6.2-7.8,8-5.8c0.6,0.7,0.7,1.4,0.7,3.7c-0.1,7-4,16-9.2,21.2c-2.7,2.7-5.7,4.2-9.4,4.8   c-2.8,0.4-4.7,1.1-4.7,1.8c0,0.8,1.9,3,3,3.6c1,0.5,2,0.6,4.2,0.6c2.6-0.1,3.1-0.3,5.6-1.8c2.5-1.5,2.9-1.6,3.3-1.1   c0.5,0.5,0.5,0.8,0.2,2.2c-0.8,3-2.9,4.3-7.9,4.9c-5,0.6-6.8,2.2-5.1,4.5c1.1,1.5,3,2.3,5.6,2.3c3,0,5.5-1.3,8.9-4.5   c1.5-1.3,2.8-2.3,3-2.2c0.5,0.3,0.5,3.4-0.1,5.2c-0.5,1.8-2.9,4.6-4.4,5.2c-0.6,0.2-2,0.7-3.2,1c-4.1,1.1-4.7,2.8-1.8,4.7   c1.9,1.3,5.1,1.4,7.4,0.3c1.5-0.7,5.7-4.6,6.5-6c0.7-1.3,1.4-0.3,1.2,1.5c-0.2,1.6-1.1,3.3-3.1,6.2c-1.7,2.3-1.1,5.4,1.7,9.5   c1.9,2.8,3.7,4.8,4.5,5.1c0.8-0.4,2.6-2.3,4.5-5.1c2.8-4.2,3.4-7.3,1.7-9.5c-2.1-2.9-3-4.6-3.1-6.2c-0.2-1.9,0.5-2.8,1.2-1.5   c0.8,1.4,5,5.3,6.5,6c2.3,1.1,5.5,1,7.4-0.3c2.9-1.9,2.3-3.5-1.8-4.7c-1.2-0.3-2.6-0.8-3.2-1c-1.4-0.6-3.8-3.4-4.4-5.2   c-0.6-1.9-0.6-4.9-0.1-5.2c0.2-0.1,1.5,0.8,3,2.2c3.4,3.2,5.9,4.5,8.9,4.5c2.6,0,4.5-0.8,5.6-2.3c1.7-2.4,0-3.9-5.1-4.5   c-4.9-0.6-7.1-2-7.9-4.9c-0.4-1.4-0.4-1.7,0.1-2.2c0.5-0.5,0.9-0.4,3.3,1.1c2.5,1.5,3,1.7,5.6,1.8c2.2,0.1,3.2,0,4.2-0.6   c1.2-0.6,3-2.8,3-3.6c0-0.7-1.9-1.4-4.7-1.8c-3.6-0.5-6.6-2-9.4-4.8c-5.2-5.1-9.2-14.2-9.2-21.2c0-2.4,0.1-3.1,0.7-3.7   c1.8-2,4-0.4,8,5.8c2.4,3.6,6.8,12.2,7.5,14.4c0.4,1.4,0.6,1.5,1.9,1.5c1.4,0,4.8-1.5,6.9-3.2l1.1-0.9l7.7,3c4.2,1.6,7.9,3,8.1,3   c1.2,0,0.3,0.8-2,1.9c-2.1,1-2.7,1.1-3.5,0.8c-1.7-0.7-3.1,0-5.5,2.4c-2,2-2.2,2.4-2.2,3.9c0,1.1,0,1.2,0.2,2.3   c0.8-0.7,0.8-0.5,1.3-1.3c1.2-1.7,2-2,3.8-1.5c1.9,0.6,3.6,0,4.4-1.6c0.5-0.9,1.4-1.5,4.1-2.8c5.4-2.5,5.1-2.5,9.9,0.5   c3.5,2.2,4.2,2.8,4.9,4.2c1,2.1,2.2,2.9,4.8,3.1c1.9,0.1,2.2,0.3,3,1.5c0.5,0.7-0.1-0.5,1.6,3.4c1.5-3.5,1.3-3.8,0.7-5.8   c-0.2-0.8-0.6-2.2-0.8-3c-0.5-2.1-2.4-3.1-5.8-3.1c-2.5,0-2.8,0-5.7-1.8c-1.7-1-2.9-1.9-2.7-1.9c0.2,0,2.9,0,6,0   c4.1,0,5.9,0.2,6.7,0.5c1.3,0.7,3.9,0.7,5,0.2c0.5-0.2,1.2-0.8,1.7-1.2c0.8-0.7,1.1-0.8,3.6-0.4c1.5,0.2,0.8,0.2,2.9,0.2   C340.2,297.7,339.4,297.2,338.3,296.4 M283.6,171.5c0.8-0.5-0.7-2.1,1-2c0.4,0,0.9,0.1,1.7,0.3c1.2,0.2,1.8,1.6,1.1,2.3   c-0.8,0.8-5,1.1-5.8,0.4C280.2,168.8,282.6,172.2,283.6,171.5 M230.4,172.7c-0.8,0.6-5,0.4-5.8-0.4c-0.8-0.8-0.2-2.1,1.1-2.3   c0.8-0.2,1.4-0.3,1.7-0.3c1.7-0.1,0.1,1.5,0.9,2C229.4,172.2,231.8,168.8,230.4,172.7"/></g></svg>