<?xml version="1.0" ?><svg id="Layer_1" style="enable-background:new 0 0 512 512;" version="1.1" viewBox="0 0 512 512" xml:space="preserve" xmlns="http://www.w3.org/2000/svg" xmlns:xlink="http://www.w3.org/1999/xlink"><style type="text/css">
	.st0{fill:#C02026;}
	.st1{fill:#F8E625;}
</style><g><rect class="st0" height="298.7" width="512" y="106.7"/><path class="st1" d="M435.2,405.4H512L256,256L435.2,405.4z M0,106.7L256,256L76.8,106.7H0z"/><path class="st1" d="M230.4,405.4h51.2L256,256L230.4,405.4z M230.4,106.7L256,256l25.6-149.3H230.4z"/><path class="st1" d="M0,405.4h76.8L256,256L0,405.4z M435.2,106.7L256,256l256-149.3H435.2z"/><path class="st1" d="M0,285.9L256,256L0,226.1V285.9z M256,256l256,29.9v-59.7L256,256z"/><path class="st0" d="M256,202.7c29.5,0,53.3,23.9,53.3,53.3c0,29.5-23.9,53.3-53.3,53.3c-29.5,0-53.3-23.9-53.3-53.3   C202.7,226.5,226.5,202.7,256,202.7"/><path class="st1" d="M256,213.3c23.6,0,42.7,19.1,42.7,42.7c0,23.6-19.1,42.7-42.7,42.7c-23.6,0-42.7-19.1-42.7-42.7   C213.3,232.4,232.4,213.3,256,213.3"/></g></svg>