<?xml version="1.0" ?><svg enable-background="new 0 0 841.89 595.28" height="100" id="Layer_1" version="1.1" viewBox="0 0 99.999998 99.999995" width="100" xml:space="preserve" xmlns="http://www.w3.org/2000/svg" xmlns:cc="http://creativecommons.org/ns#" xmlns:dc="http://purl.org/dc/elements/1.1/" xmlns:inkscape="http://www.inkscape.org/namespaces/inkscape" xmlns:rdf="http://www.w3.org/1999/02/22-rdf-syntax-ns#" xmlns:sodipodi="http://sodipodi.sourceforge.net/DTD/sodipodi-0.dtd" xmlns:svg="http://www.w3.org/2000/svg"><defs id="defs45"/><g id="g3" transform="matrix(0.21293124,0,0,0.21293124,-39.632448,-13.376857)"><polygon id="polygon5" points="368.917,254.74 368.917,259.299 356.232,259.299 356.232,266.394 366.55,266.394 366.55,270.907 356.232,270.907 356.232,281.615 351.029,281.615 351.029,254.74 " style="fill:#3a5b98"/><g id="g7"><path d="m 375.021,258.18 c -1.978,0 -3.096,-1.204 -3.096,-3.052 0,-1.806 1.118,-3.054 3.096,-3.054 2.021,0 3.14,1.248 3.14,3.054 0,1.848 -1.119,3.052 -3.14,3.052 m -2.537,23.435 v -19.694 l 5.074,-0.73 v 20.425 h -5.074 z" id="path9" style="fill:#3a5b98"/><path d="m 395.287,281.615 v -12.083 c 0,-2.924 -1.16,-3.913 -3.439,-3.913 -1.764,0 -3.398,0.903 -4.387,1.849 v 14.147 h -5.073 v -19.737 l 5.073,-0.688 v 3.139 c 1.764,-1.936 4.129,-3.182 6.535,-3.182 4,0 6.364,2.579 6.364,6.837 v 13.631 h -5.073 z" id="path11" style="fill:#3a5b98"/><path d="m 418.308,252.892 5.073,-0.688 v 29.412 h -5.073 v -1.935 c -1.332,1.289 -3.139,2.579 -5.591,2.579 -5.245,0 -8.642,-4.257 -8.642,-10.405 0,-6.321 4.386,-10.707 10.018,-10.707 1.419,0 2.969,0.258 4.215,0.645 v -8.901 z m -3.74,12.297 c -3.397,0 -5.332,2.795 -5.332,6.45 0,3.869 1.935,6.32 4.988,6.32 1.676,0 2.967,-0.602 4.084,-1.634 v -9.976 c -0.988,-0.73 -2.236,-1.16 -3.74,-1.16" id="path13" style="fill:#3a5b98"/><path d="m 443.508,261.792 v 12.083 c 0,2.924 1.201,3.87 3.354,3.87 1.805,0 3.396,-0.816 4.342,-1.72 v -14.233 h 5.074 v 19.694 l -5.074,0.688 v -2.924 c -1.635,1.764 -4,3.011 -6.537,3.011 -3.869,0 -6.232,-2.58 -6.232,-6.838 v -13.631 h 5.073 z" id="path15" style="fill:#3a5b98"/><path d="m 467.568,282.303 c -2.58,0 -5.721,-0.73 -7.697,-1.849 l 1.119,-3.956 c 1.977,1.118 4.514,1.849 6.707,1.849 1.977,0 3.268,-0.816 3.268,-2.192 0,-1.548 -1.676,-2.107 -4,-2.666 -3.74,-0.86 -6.707,-2.408 -6.707,-6.149 0,-3.741 3.139,-6.191 7.912,-6.191 2.451,0 5.375,0.645 7.223,1.592 l -1.117,3.955 c -1.936,-0.989 -4.473,-1.635 -6.234,-1.635 -1.85,0 -2.967,0.688 -2.967,1.979 0,1.505 1.678,2.021 4,2.58 3.781,0.903 6.75,2.365 6.75,6.234 -10e-4,3.697 -3.184,6.449 -8.257,6.449" id="path17" style="fill:#3a5b98"/><path d="m 498.613,282.26 c -5.805,0 -10.018,-3.955 -10.018,-10.534 0,-6.536 4.428,-10.621 10.277,-10.621 5.848,0 10.018,4.042 10.018,10.578 0.001,6.492 -4.47,10.577 -10.277,10.577 m 0.086,-17.071 c -3.311,0 -5.115,2.666 -5.115,6.493 0,3.783 1.891,6.449 5.203,6.449 3.266,0 5.072,-2.58 5.072,-6.406 0,-3.827 -1.89,-6.536 -5.16,-6.536" id="path19" style="fill:#3a5b98"/><path d="m 525.566,281.615 v -12.083 c 0,-2.924 -1.16,-3.913 -3.439,-3.913 -1.764,0 -3.398,0.903 -4.387,1.849 v 14.147 h -5.074 v -19.737 l 5.074,-0.688 v 3.139 c 1.764,-1.936 4.129,-3.182 6.535,-3.182 4,0 6.363,2.579 6.363,6.837 v 13.631 h -5.072 z" id="path21" style="fill:#3a5b98"/><polygon id="polygon23" points="379.314,299.533 379.314,306.742 359.255,306.742 359.255,317.961 375.574,317.961 375.574,325.1 359.255,325.1 359.255,342.029 351.029,342.029 351.029,299.533 " style="fill:#3a5b98"/><path d="m 398.919,338.426 c -2.244,2.721 -4.965,4.623 -8.84,4.623 -5.644,0 -9.723,-3.875 -9.723,-8.838 0,-5.779 4.215,-10.676 18.563,-11.15 v -0.748 c 0,-4.217 -1.77,-5.984 -6.256,-5.984 -3.195,0 -7.072,1.428 -10.404,3.332 l -1.631,-6.322 c 3.061,-1.904 7.955,-3.672 13.123,-3.672 9.654,0 13.395,4.283 13.189,12.918 v 11.219 c 0,2.379 0.409,2.719 2.789,2.855 l -0.613,6.051 c -5.982,0.682 -8.77,-1.154 -9.927,-4.283 h -0.27 z m 0,-11.151 c -7.819,0.951 -10.676,2.516 -10.676,5.848 0,2.381 1.836,4.08 4.692,4.08 2.515,0 4.554,-1.156 5.983,-2.721 v -7.207 z" id="path25" style="fill:#3a5b98"/><path d="m 428.41,343.049 c -10.2,0 -16.252,-6.322 -16.252,-16.59 0,-10.199 6.664,-16.793 16.522,-16.793 4.285,0 7.957,0.951 10.813,2.65 l -1.699,6.459 c -2.584,-1.631 -5.576,-2.516 -8.5,-2.516 -5.779,0 -8.907,3.943 -8.907,9.996 0,6.391 3.602,10.131 8.907,10.131 3.264,0 6.256,-0.885 8.703,-2.447 l 1.293,6.527 c -2.722,1.632 -6.665,2.583 -10.88,2.583" id="path27" style="fill:#3a5b98"/><path d="m 450.074,328.092 c 0.34,5.1 3.809,8.566 9.383,8.566 3.332,0 6.936,-1.088 9.791,-2.855 l 1.02,6.664 c -2.992,1.631 -7.139,2.582 -11.354,2.582 -10.064,0 -16.727,-6.391 -16.727,-16.385 0,-10.199 6.799,-16.998 16.182,-16.998 8.295,0 12.92,5.031 12.92,12.713 0,1.701 -0.273,3.877 -0.682,5.236 -0.066,0 -20.533,0.271 -20.533,0.271 v 0.206 z m 13.668,-4.965 v -0.543 c 0,-4.215 -1.838,-6.867 -5.984,-6.867 -4.42,0 -7.072,3.604 -7.48,7.479 l 13.464,-0.069 z" id="path29" style="fill:#3a5b98"/><path d="m 491.682,342.982 c -2.039,0 -4.963,-0.408 -7.004,-1.088 l -7.682,1.154 V 296.61 l 8.021,-1.088 v 18.153 c 2.109,-2.039 4.965,-4.01 8.773,-4.01 8.293,0 13.734,6.73 13.734,16.385 10e-4,9.997 -6.936,16.932 -15.842,16.932 m -0.203,-26.586 c -2.652,0 -4.691,1.021 -6.461,2.584 v 15.842 c 1.496,1.156 3.537,1.768 5.916,1.768 5.371,0 8.432,-4.352 8.432,-10.199 -10e-4,-6.12 -2.925,-9.995 -7.887,-9.995" id="path31" style="fill:#3a5b98"/><path d="m 527.17,343.049 c -9.178,0 -15.842,-6.254 -15.842,-16.658 0,-10.334 7.004,-16.793 16.25,-16.793 9.248,0 15.844,6.391 15.844,16.727 0,10.265 -7.072,16.724 -16.252,16.724 m 0.137,-26.992 c -5.234,0 -8.092,4.215 -8.092,10.268 0,5.982 2.992,10.197 8.229,10.197 5.168,0 8.021,-4.078 8.021,-10.131 0,-6.051 -2.99,-10.334 -8.158,-10.334" id="path33" style="fill:#3a5b98"/><path d="m 563.156,343.049 c -9.178,0 -15.842,-6.254 -15.842,-16.658 0,-10.334 7.002,-16.793 16.25,-16.793 9.248,0 15.842,6.391 15.842,16.727 0,10.265 -7.07,16.724 -16.25,16.724 m 0.137,-26.992 c -5.236,0 -8.092,4.215 -8.092,10.268 0,5.982 2.992,10.197 8.229,10.197 5.166,0 8.021,-4.078 8.021,-10.131 0,-6.051 -2.99,-10.334 -8.158,-10.334" id="path35" style="fill:#3a5b98"/><polygon id="polygon37" points="613.902,310.686 600.914,325.576 613.971,342.029 604.383,342.029 593.096,326.936 592.959,326.936 592.959,342.029 584.938,342.029 584.938,296.61 592.959,295.522 592.959,324.623 593.096,324.623 604.314,310.686 " style="fill:#3a5b98"/><path d="m 321.804,247.956 h -88.4 c -3.03,0 -5.484,2.454 -5.484,5.483 v 88.4 c 0,3.029 2.454,5.484 5.484,5.484 h 88.4 c 3.027,0 5.483,-2.455 5.483,-5.484 v -88.4 c 0.001,-3.029 -2.455,-5.483 -5.483,-5.483" id="path39" style="fill:#3d5a98"/><path d="m 309.4,308.844 1.933,-14.997 h -14.851 v -9.575 c 0,-4.341 1.207,-7.3 7.433,-7.3 l 7.94,-0.003 v -13.415 c -1.373,-0.182 -6.086,-0.59 -11.572,-0.59 -11.449,0 -19.287,6.988 -19.287,19.823 v 11.06 h -12.95 v 14.997 h 12.95 v 38.48 h 15.486 v -38.48 H 309.4 z" id="path41" style="fill:#ffffff"/></g></g></svg>