<svg id="Layer_1" data-name="Layer 1" xmlns="http://www.w3.org/2000/svg" viewBox="0 0 730.58 246.29"><title>12</title><path d="M549.55,64.8l28.06.45c17.55.29,31.63,4.87,31.39,17.46-.32,16.37-21.1,23-40.53,22.72l-9.72-.16-6.35,21.1L530.81,126Zm19.28,28.71c11.61.19,18.16-3.68,18.28-9.55.08-4.54-4.19-6.69-12.29-6.83L567.4,77l-4.91,16.4Zm14.52,3.17,17.09,30.47-23.88-.38-11.41-24Z" transform="translate(-1 -2.66)" fill="#c83838" stroke="#c83838" stroke-miterlimit="10" stroke-width="1.08"/><path d="M39.94,45.73,28.22,49.88l2.54-.15H446.31q2.49-2.05,5.23-4Z" transform="translate(-1 -2.66)" fill="#c83838"/><path d="M507.71,16.73H109.49l-11.26,4H494.68" transform="translate(-1 -2.66)" fill="#c83838"/><path d="M495.7,20" transform="translate(-1 -2.66)" fill="none" stroke="#cd3232" stroke-linecap="round" stroke-linejoin="round" stroke-width="1.13"/><path d="M449.57,153.14" transform="translate(-1 -2.66)" fill="none" stroke="#cd3232" stroke-linecap="round" stroke-linejoin="round" stroke-width="1.13"/><path d="M448,145.75" transform="translate(-1 -2.66)" fill="none" stroke="#cd3232" stroke-linecap="round" stroke-linejoin="round" stroke-width="1.13"/><path d="M430.89,106.82c-.63-3.12-1.94-6.38-1.94-9.59a47.84,47.84,0,0,1,1-9.5.87.87,0,0,0-.9-1H33.06l30.52,21H429C429.59,107.73,431,107.34,430.89,106.82Z" transform="translate(-1 -2.66)" fill="#c83838"/><path d="M432.36,115.73H75.87l-.11.35,30,20.65H448C442,130.21,435.12,123.16,432.36,115.73Z" transform="translate(-1 -2.66)" fill="#c83838"/><path d="M456.76,143.73H116.64l30.53,21H490.94C477.51,159,465.92,151.85,456.76,143.73Z" transform="translate(-1 -2.66)" fill="#c83838"/><path d="M438.69,58.73H18.24L1,65.6,21.54,79.73H431.05C433.66,72.31,432.85,65.26,438.69,58.73Z" transform="translate(-1 -2.66)" fill="#c83838"/><text transform="translate(146.3 231.06) scale(1.09 1)" font-size="55" fill="#c83838" stroke="#c83838" stroke-miterlimit="10" stroke-width="1.08" font-family="ArchivoBlack-Regular, Archivo Black" letter-spacing="0.08em">R<tspan x="46.92" y="0" letter-spacing="0.1em">en</tspan><tspan x="131.28" y="0" letter-spacing="0.07em">o</tspan><tspan x="171.6" y="0" letter-spacing="0.1em">va DL Sà</tspan><tspan x="478.39" y="0" letter-spacing="0.13em">r</tspan><tspan x="510.12" y="0" letter-spacing="0.1em">l</tspan></text><path d="M471.76,153.85a166.59,166.59,0,0,0,20.88,10.32,172.32,172.32,0,0,0,22.14,7.21,202.05,202.05,0,0,0,46,5.84c7.74.16,15.49-.22,23.18-.78s15.34-1.58,22.9-2.9a185.8,185.8,0,0,0,43.52-13.28,147.12,147.12,0,0,0,37.43-23.76,78.44,78.44,0,0,0,13.78-15.73,51.85,51.85,0,0,0,7.48-17.92,21,21,0,0,0,.4-2.35c.1-.79.28-1.56.32-2.36a47.31,47.31,0,0,0,.2-4.77,53.28,53.28,0,0,0-.85-9.47l-.53-2.28c-.09-.38-.15-.77-.26-1.14L708,79.36l-.7-2.23L706.45,75,706,73.87l-.53-1.06c-.35-.7-.69-1.41-1-2.12l-1.19-2.06-.58-1c-.2-.34-.45-.67-.67-1-7-10.75-18.13-19.7-30.56-27a154.89,154.89,0,0,0-19.37-9.8,178.37,178.37,0,0,0-20.59-7.32,224.82,224.82,0,0,0-43.67-7.85c-7.47-.57-15-1-22.53-1s-15,.27-22.54.92a207,207,0,0,0-22.31,3.08,177,177,0,0,0-21.8,5.74A160.72,160.72,0,0,0,477.75,32a132.55,132.55,0,0,0-19.43,11.65A85.27,85.27,0,0,0,442.07,59a55.45,55.45,0,0,0-10.28,19.75,28.07,28.07,0,0,0-.67,2.74c-.18.92-.45,1.82-.56,2.76a57.65,57.65,0,0,0-.28,17l.49,2.8c.09.47.15.94.27,1.4l.35,1.38c.24.92.46,1.85.73,2.77l.92,2.7c.16.45.3.91.47,1.35l.57,1.32,1.14,2.63,1.35,2.54.68,1.27c.23.42.51.81.76,1.22a78.74,78.74,0,0,0,14.9,17.59A129.8,129.8,0,0,0,471.76,153.85Zm-.68,1.16a130.57,130.57,0,0,1-19.15-13.65,82.29,82.29,0,0,1-15.48-17.75c-.26-.41-.54-.82-.79-1.24l-.72-1.3-1.44-2.59-1.24-2.69-.62-1.35c-.19-.45-.35-.92-.52-1.38l-1-2.79c-.3-.94-.55-1.9-.83-2.85l-.41-1.42c-.13-.48-.2-1-.31-1.45l-.58-2.91a61.67,61.67,0,0,1-.73-11.83,58.59,58.59,0,0,1,.48-5.91c.08-1,.33-2,.49-2.93s.32-2,.61-2.9a60.9,60.9,0,0,1,10-21.37,89.24,89.24,0,0,1,16.35-17,143.83,143.83,0,0,1,19.55-13.12A168,168,0,0,1,496,16.47a193.36,193.36,0,0,1,45.5-11.6A263.07,263.07,0,0,1,588.41,3a219.48,219.48,0,0,1,46.47,7A173.88,173.88,0,0,1,678.31,28a130.15,130.15,0,0,1,19.22,13.75A83.06,83.06,0,0,1,713,59.71a29,29,0,0,1,1.51,2.58L716,64.9l1.24,2.72.62,1.37.52,1.4,1,2.81c.29,1,.55,1.91.82,2.87l.4,1.44c.12.49.2,1,.3,1.47l.58,2.93a62.47,62.47,0,0,1,.67,11.91,56.42,56.42,0,0,1-.5,5.94c-.09,1-.34,2-.51,2.95a29.75,29.75,0,0,1-.62,2.92,61.43,61.43,0,0,1-10.1,21.44,90,90,0,0,1-16.4,17,136,136,0,0,1-19.59,13.11,169.35,169.35,0,0,1-21.32,10,195.14,195.14,0,0,1-45.55,11.37,263.41,263.41,0,0,1-46.89,1.75,219.63,219.63,0,0,1-46.36-7.15A173,173,0,0,1,471.08,155Z" transform="translate(-1 -2.66)" fill="#c83838"/></svg>