<svg id="Layer_1" data-name="Layer 1" xmlns="http://www.w3.org/2000/svg" viewBox="0 0 1082.28 365.89"><title>2</title><path d="M182.86,234.46H539.39q74.51,0,149,0L681.65,227a8.29,8.29,0,0,0-7.91-3.75q-173.28.25-346.55,0h-3.56q-77.52,0-155,0a7.77,7.77,0,0,1-4.1-1.27c-5-3.42-10-7-14.92-10.57-6.24-4.49-12.45-9-18.68-13.55-2.89-2.11-5.79-4.21-8.67-6.34a15.84,15.84,0,0,1-1.38-1.46H655.56c-1.44-4.25-2.77-8.14-4.2-12.36h-545a7.67,7.67,0,0,1-5.19-1.61c-5-3.92-10.37-7.47-15.57-11.2q-10.25-7.37-20.45-14.79c-2.44-1.78-4.82-3.67-7.45-5.68H648.44c.52-3.79,1-7.38,1.55-11.26H647.3q-301.89,0-603.78.09c-3.82,0-6.2-2-8.85-3.94-.33-.24-.58-.58-.91-.81-5.6-4-11.22-7.94-16.8-12-2.51-1.8-4.93-3.73-7.53-5.7,2.55-1.19,5-2.42,7.54-3.49,3.51-1.47,7.3-2.73,10.83-4.33,3.76-1.7,6.86-3.33,11.12-3.33q177.5,0,355,0H663.35c3.41-4.66,6.79-9.26,10.26-14H51.3l-.09-.26,1.31-.56,9.29-3.65a27.26,27.26,0,0,1,10.08-2.12q302.6.1,605.21.06h2.56L692,67.85c.22-.2.44-.41.68-.59,5-3.63,9.86-7.36,14.93-10.85,4-2.78,8.2-5.33,12.38-7.85,3.63-2.18,7.36-4.16,11-6.26,1.37-.77,2.7-1.61,4.45-2.66H195.83q-10,0-20,.13c-6.3.08-12.68.53-18.92-.55,6.73-3.6,14.44-6.11,22.12-6.11q284.34,0,568.68,0a12.47,12.47,0,0,0,4-.75c4-1.37,7.83-3,11.82-4.28C773,25,782.42,21.77,792,19.33s19.45-3.67,29.2-5.32c17.91-3,36.13-3.51,54.26-3.48a292.12,292.12,0,0,1,43,2.9c11.58,1.75,23.1,4,34.52,6.6a231.55,231.55,0,0,1,22.64,6.78c5.92,2,11.74,4.35,17.5,6.79,4.89,2.06,9.67,4.37,14.41,6.76,4.26,2.14,8.44,4.46,12.56,6.85,3.65,2.13,7.31,4.3,10.74,6.76,6.07,4.33,12.16,8.65,17.87,13.43A117.15,117.15,0,0,1,1062.9,81a155.8,155.8,0,0,1,14.95,20.07,95.85,95.85,0,0,1,13.82,53.51,97.34,97.34,0,0,1-7.47,34.94,104,104,0,0,1-11.11,20,116.23,116.23,0,0,1-18.19,20.66c-5.25,4.59-10.64,9-16.08,13.38a139.84,139.84,0,0,1-21.26,13.83c-4.24,2.29-8.45,4.66-12.78,6.78-5,2.46-10.11,4.84-15.3,7-6,2.45-12.07,4.81-18.25,6.78-7.73,2.47-15.58,4.54-23.39,6.73-14.13,4-28.69,5.19-43.18,7C857.88,297.59,806.3,292,761.9,276c-8.59-3.08-17.81-8.24-27.12-8.23q-251.76.1-503.51.13c-2.76,0-4.6-1.29-6.56-2.73-.56-.41-1-1-1.59-1.38-5.49-3.93-11-7.81-16.51-11.76q-9.23-6.63-18.37-13.36C186.52,237.45,184.9,236.07,182.86,234.46Zm670.72,51.7q14.86,0,30-1.37c14.27-1.3,28.65-2.86,42.49-6.73,8.1-2.26,16.25-4.37,24.25-6.91,6.19-2,12.25-4.37,18.26-6.83,5.18-2.13,10.26-4.51,15.29-7,4.28-2.1,8.53-4.28,12.58-6.78,7-4.33,14-8.68,20.64-13.48a192.8,192.8,0,0,0,16.74-13.69,147.78,147.78,0,0,0,13.29-13.78,135.73,135.73,0,0,0,9.84-13.64,72.28,72.28,0,0,0,10.32-26.61A74.44,74.44,0,0,0,1060.4,121c-5.14-10.2-12.39-18.87-20.7-26.59a147,147,0,0,0-16.36-13.32c-7.44-5.16-15.27-9.77-23.05-14.42a122,122,0,0,0-11.59-6c-5.36-2.47-10.76-4.87-16.25-7-5.71-2.24-11.47-4.43-17.35-6.16-8.88-2.61-17.77-5.42-26.85-7-15.13-2.7-30.37-5-45.65-6.59a344.78,344.78,0,0,0-34.48-1.54A250,250,0,0,0,813,34.44c-13.4,1.82-26.86,3.14-39.84,7.18-7.4,2.3-14.86,4.42-22.17,7-5.68,2-11.22,4.37-16.71,6.81-4.46,2-8.81,4.22-13.12,6.51-4.1,2.18-8.15,4.47-12.11,6.91-3.55,2.18-7,4.57-10.4,6.93a94.1,94.1,0,0,0-16.2,13.79c-4,4.35-7.92,8.77-11.62,13.36a78.42,78.42,0,0,0-11.64,20.72,86.09,86.09,0,0,0-6,31.59,90.77,90.77,0,0,0,14.41,49.67,115,115,0,0,0,16.3,20.39,168.74,168.74,0,0,0,15.46,13.58c6.08,4.69,12.52,9,19,13.14,31.63,20.55,69.28,29.82,106.51,33C834.41,285.77,844,286.16,853.58,286.16Z" transform="translate(-9.43 -10.53)" fill="#c83838"/><path d="M281.83,352.64c4.47,7.55,8.88,15,13.42,22.62H273.31l-10.81-19.8h-7.12v19.79H236v-54.2h1.73c11.92,0,23.83-.07,35.75.05a32.34,32.34,0,0,1,8,1.13,15.74,15.74,0,0,1,11.05,20.37C290.81,347.54,287,350.61,281.83,352.64Zm-26.43-9.58c4.72,0,9.26.16,13.78-.05a4.56,4.56,0,0,0,4.29-5.1c-.15-2.46-2.18-4.29-5-4.37-2.42-.07-4.85,0-7.28,0H255.4Z" transform="translate(-9.43 -10.53)" fill="#c83838"/><path d="M678.82,375.3V321.17a7.86,7.86,0,0,1,1-.11c10.07,0,20.15-.08,30.21.25a39.21,39.21,0,0,1,11.06,2.08c9.3,3.14,13.91,9.83,15.22,18.51,1,6.73.76,13.4-2.32,19.77-2.85,5.91-7.71,9.74-14.42,11.54a56.08,56.08,0,0,1-14.78,2.17c-8.18,0-16.36,0-24.54,0C679.8,375.37,679.4,375.33,678.82,375.3Zm19.45-13.47c3.15,0,6.12.2,9.05-.05,4.82-.4,8.08-2.65,8.71-7a54.61,54.61,0,0,0,0-13.52c-.31-3-2.43-5.34-5.81-6.39-3.79-1.18-8-.75-12-.79Z" transform="translate(-9.43 -10.53)" fill="#c83838"/><path d="M859,357h18.19c.52,4.73,3,6.48,7.89,6.6a58.47,58.47,0,0,0,7.24-.41,3.27,3.27,0,0,0,3.14-2.81c.29-1.82-1-2.72-2.67-3.13-5.33-1.33-10.69-2.56-16-3.84-1.43-.35-2.85-.73-4.28-1.08a19,19,0,0,1-9.3-5.65c-3.77-4-3.94-8.8-2.78-13.67a13.48,13.48,0,0,1,8.86-9.67,47.76,47.76,0,0,1,34.89-.16c5.86,2.23,9.09,6.53,9.69,12.37.06.58,0,1.17,0,1.85h-18a8.74,8.74,0,0,0-4.76-4.85c-2.79-1.2-7.91-1.12-10.37.82-1.86,1.46-.12,4.5,1.86,5.1,3.63,1.11,7.44,1.74,11.18,2.55a66.4,66.4,0,0,1,7.23,1.6,47.38,47.38,0,0,1,8.38,3.61c5.93,3.42,6.81,8.78,5.89,14.57-.94,6-4.59,10.07-10.67,12.56-9.31,3.8-18.9,3.32-28.53,1.75a42.4,42.4,0,0,1-8.09-2.68C861.41,370,858.56,363.12,859,357Z" transform="translate(-9.43 -10.53)" fill="#c83838"/><path d="M601.06,349.51a5.14,5.14,0,0,0-4.39-6.72c-4.39-.47-8-.14-9,3.75H570.63A8.92,8.92,0,0,1,573,339a15,15,0,0,1,8.09-4.68,55,55,0,0,1,28,.26,13.51,13.51,0,0,1,6.82,3.82,10.92,10.92,0,0,1,2.93,7.63c0,4.88,0,9.75,0,14.63,0,3.45-.06,5.12,5.1,4.78a5.63,5.63,0,0,1,.82.07v8.65c-4,4.05-17.58,2.33-22-2.88-2.27,1-4.59,1.93-6.79,3.06-3.22,1.65-6.73,1.84-10.27,1.86-3.72,0-7.37-.24-10.73-2.07-2.74-1.5-4.76-3.34-5.38-6.29-1.57-7.39,1-13.9,10-16.1a72.68,72.68,0,0,1,17.65-2.25Zm.16,7.51c-3.17.35-6.15.55-9.06,1.06a10.47,10.47,0,0,0-3.95,1.7,3.24,3.24,0,0,0,.73,5.84,11.33,11.33,0,0,0,10.1-1.17C601.94,362.65,601.15,360,601.22,357Z" transform="translate(-9.43 -10.53)" fill="#c83838"/><path d="M985.71,365.45v8.83c-5.14,3.88-17.51,2.19-22.08-3-2.32,1-4.68,2-6.93,3.11-3.17,1.62-6.63,1.81-10.09,1.8s-6.87-.15-10.11-1.76c-4.64-2.32-6.82-5.52-6.48-10.42.56-8,4.85-11.91,14.74-13.17,5.7-.73,11.44-1.21,17.29-1.81.7-2.92-.87-5.59-4.25-6.17-4.24-.72-8.37-.26-9.22,3.68H931.45a8.94,8.94,0,0,1,1.69-6.67c2.62-3.57,6.52-5.24,10.91-6.06a56.74,56.74,0,0,1,25.82.71c6.7,1.83,10.18,6.37,9.93,12.53-.2,4.77,0,9.54,0,14.31,0,3.5.59,4.05,4.4,4.07Zm-23.56-8c-4.38,0-8.92.31-12.84,2.29a3.18,3.18,0,0,0,.44,5.9,11.18,11.18,0,0,0,10.11-1.12C962.65,362.71,962.24,360,962.15,357.41Z" transform="translate(-9.43 -10.53)" fill="#c83838"/><path d="M360.15,357.29H325.37c-.47,4.63,2,7.82,6.34,8.51,6.7,1.06,10-.57,11.43-5.74h16.93a24.45,24.45,0,0,1-.49,3.82,13.24,13.24,0,0,1-6.24,8.15c-5.87,3.36-12.35,4.42-19.14,4.18a46.51,46.51,0,0,1-7.94-.7c-4.6-1-9.11-2.44-12.57-5.54-4.17-3.74-5.8-8.53-6.07-13.78a23.5,23.5,0,0,1,2.22-12.37,17.94,17.94,0,0,1,10.46-9,42.48,42.48,0,0,1,27-.15c7.69,2.46,11.43,8,12.44,15.2C360,352.25,360,354.64,360.15,357.29Zm-34.73-7.88h16.74c0-3.79-2.78-6.44-6.79-6.78C329.43,342.12,325.7,345.45,325.42,349.41Z" transform="translate(-9.43 -10.53)" fill="#c83838"/><path d="M425.54,375.28H407.93v-2q0-11.22,0-22.44c0-4.2-1.83-6.27-5.68-6.46-4-.2-7.27,2.31-7.36,6.14-.18,7.59-.09,15.17-.11,22.76v2H377.28V333.75h14.36c.36,1.88.71,3.73,1.13,5.94a22.93,22.93,0,0,1,2.62-2.56,23.59,23.59,0,0,1,22.45-2.87c4.73,1.71,6.72,5.57,7.25,9.87a104.39,104.39,0,0,1,.43,12C425.58,362.47,425.54,368.81,425.54,375.28Z" transform="translate(-9.43 -10.53)" fill="#c83838"/><path d="M469.11,332.73a42,42,0,0,1,11.11,1.53c8.87,2.44,13.52,8.25,14.61,16.53a24.6,24.6,0,0,1-1.13,12,17.38,17.38,0,0,1-8.47,9.63c-8.27,4.32-17.06,4.66-26.06,2.73a28,28,0,0,1-6.75-2.71c-6.47-3.35-9.07-8.87-9.72-15.32-.46-4.63-.05-9.26,2.22-13.48A19,19,0,0,1,458.16,334,50.27,50.27,0,0,1,469.11,332.73Zm8.31,21.8c.31-5.7-1.34-11.35-8.75-11.37-4.48,0-8,3-8.22,6.37a54.53,54.53,0,0,0,0,9.39c.27,2.85,1.62,5.49,5.11,6.07a22.33,22.33,0,0,0,6.63,0,4.4,4.4,0,0,0,3.89-2.94A33.63,33.63,0,0,0,477.42,354.53Z" transform="translate(-9.43 -10.53)" fill="#c83838"/><path d="M756,321.14h19.4v40h31v14.15H756Z" transform="translate(-9.43 -10.53)" fill="#c83838"/><path d="M540.44,333.66h17.35L540,375.33H521.61c-5.86-13.82-11.71-27.64-17.64-41.62H522.9q4.23,12.75,8.47,25.6l.57.06Q536.18,346.52,540.44,333.66Z" transform="translate(-9.43 -10.53)" fill="#c83838"/><path d="M1051.61,318H1069v57.26h-17.39Z" transform="translate(-9.43 -10.53)" fill="#c83838"/><path d="M1033.61,333.57v13.18c-8.13,0-15.28,0-15.76,9-.32,5.84-.08,11.7-.09,17.55v1.91h-17.49V333.73h14.34c.36,1.83.71,3.66,1.16,6,1.79-4,5-5.88,9-6.68A15,15,0,0,1,1033.61,333.57Z" transform="translate(-9.43 -10.53)" fill="#c83838"/><path d="M964.22,328.63c-3.85,0-7.34.21-10.77-.11-1.34-.12-2.61-1.37-3.82-2.21-2.52-1.76-5-3.58-7.46-5.4-1.11-.82-2.16-1.72-3.56-2.84h17.53Z" transform="translate(-9.43 -10.53)" fill="#c83838"/><path d="M832.09,109.63c5.78,0,11.35,0,16.91,0,7,.08,14,.24,21,.35,10.2.15,20.36.59,30.28,3.37a38.43,38.43,0,0,1,12.29,6c7.48,5.45,9.86,13.1,8.56,22s-6.09,15.44-13.35,20.58a56,56,0,0,1-15.63,7.34c-1.11.35-2.16.91-3.33,1.41l19.61,37H872.83c-5.19-11.54-10.26-22.81-15.34-34.13H846.07c-3.14,11-6.3,22.13-9.39,33H804C813.47,173.91,822.8,141.7,832.09,109.63ZM859,129c-2.33,8.21-4.75,16.77-7.32,25.83,6.74-.26,13.21-.23,19.62-.86,5.61-.55,10.82-2.43,14.64-7,4.91-5.92,2.87-13.72-4.38-16.16S866.62,129,859,129Z" transform="translate(-9.43 -10.53)" fill="#c83838"/></svg>